<svg width="32" height="32" viewBox="0 0 32 32" fill="none" xmlns="http://www.w3.org/2000/svg">
<rect width="32" height="32" rx="4" fill="#D6EEE2"/>
<path d="M10.25 7C9.38805 7 8.5614 7.34241 7.9519 7.9519C7.34241 8.5614 7 9.38805 7 10.25V21.75C7 22.612 7.34241 23.4386 7.9519 24.0481C8.5614 24.6576 9.38805 25 10.25 25H21.75C22.612 25 23.4386 24.6576 24.0481 24.0481C24.6576 23.4386 25 22.612 25 21.75V10.25C25 9.38805 24.6576 8.5614 24.0481 7.9519C23.4386 7.34241 22.612 7 21.75 7H10.25ZM21.28 13.28L14.526 20.027C14.3854 20.1675 14.1948 20.2463 13.996 20.2463C13.7972 20.2463 13.6066 20.1675 13.466 20.027L10.72 17.28C10.5875 17.1378 10.5154 16.9498 10.5188 16.7555C10.5223 16.5612 10.601 16.3758 10.7384 16.2384C10.8758 16.101 11.0612 16.0223 11.2555 16.0188C11.4498 16.0154 11.6378 16.0875 11.78 16.22L13.997 18.436L20.22 12.219C20.2897 12.1494 20.3725 12.0942 20.4635 12.0566C20.5546 12.019 20.6522 11.9997 20.7507 11.9998C20.8492 11.9999 20.9468 12.0194 21.0378 12.0571C21.1287 12.0949 21.2114 12.1503 21.281 12.22C21.3506 12.2897 21.4058 12.3725 21.4434 12.4635C21.481 12.5546 21.5003 12.6522 21.5002 12.7507C21.5001 12.8492 21.4807 12.9468 21.4429 13.0378C21.4051 13.1287 21.3497 13.2114 21.28 13.281" fill="#43936C"/>
</svg>
