<svg width="17" height="17" viewBox="0 0 17 17" fill="none" xmlns="http://www.w3.org/2000/svg">
<g clip-path="url(#clip0_217_1999)">
<path d="M16.1685 2.44039C16.2619 2.53412 16.3144 2.66106 16.3144 2.79339C16.3144 2.92573 16.2619 3.05267 16.1685 3.14639L15.1255 4.19039L13.1255 2.19039L14.1685 1.14639C14.2623 1.05266 14.3894 1 14.522 1C14.6546 1 14.7817 1.05266 14.8755 1.14639L16.1685 2.43939V2.44039ZM14.4185 4.89639L12.4185 2.89639L5.6055 9.71039C5.55047 9.76542 5.50903 9.83253 5.4845 9.90639L4.6795 12.3204C4.6649 12.3644 4.66283 12.4116 4.67352 12.4567C4.6842 12.5018 4.70723 12.5431 4.74001 12.5759C4.7728 12.6087 4.81406 12.6317 4.85918 12.6424C4.90429 12.6531 4.9515 12.651 4.9955 12.6364L7.4095 11.8314C7.48327 11.8072 7.55037 11.7661 7.6055 11.7114L14.4185 4.89639Z" fill="#4343FF"/>
<path fill-rule="evenodd" clip-rule="evenodd" d="M1.6665 14.0004C1.6665 14.3982 1.82454 14.7797 2.10584 15.0611C2.38715 15.3424 2.76868 15.5004 3.1665 15.5004H14.1665C14.5643 15.5004 14.9459 15.3424 15.2272 15.0611C15.5085 14.7797 15.6665 14.3982 15.6665 14.0004V8.00039C15.6665 7.86778 15.6138 7.74061 15.5201 7.64684C15.4263 7.55307 15.2991 7.50039 15.1665 7.50039C15.0339 7.50039 14.9067 7.55307 14.813 7.64684C14.7192 7.74061 14.6665 7.86778 14.6665 8.00039V14.0004C14.6665 14.133 14.6138 14.2602 14.5201 14.3539C14.4263 14.4477 14.2991 14.5004 14.1665 14.5004H3.1665C3.0339 14.5004 2.90672 14.4477 2.81295 14.3539C2.71918 14.2602 2.6665 14.133 2.6665 14.0004V3.00039C2.6665 2.86778 2.71918 2.74061 2.81295 2.64684C2.90672 2.55307 3.0339 2.50039 3.1665 2.50039H9.6665C9.79911 2.50039 9.92629 2.44771 10.0201 2.35395C10.1138 2.26018 10.1665 2.133 10.1665 2.00039C10.1665 1.86779 10.1138 1.74061 10.0201 1.64684C9.92629 1.55307 9.79911 1.50039 9.6665 1.50039H3.1665C2.76868 1.50039 2.38715 1.65843 2.10584 1.93973C1.82454 2.22104 1.6665 2.60257 1.6665 3.00039V14.0004Z" fill="#4343FF"/>
</g>
<defs>
<clipPath id="clip0_217_1999">
<rect width="16" height="16" fill="white" transform="translate(0.666504 0.5)"/>
</clipPath>
</defs>
</svg>
