<svg width="32" height="32" viewBox="0 0 32 32" fill="none" xmlns="http://www.w3.org/2000/svg">
<rect width="32" height="32" rx="8" fill="#E7E5FF"/>
<path fill-rule="evenodd" clip-rule="evenodd" d="M10 11.5C10 10.9091 10.1164 10.3239 10.3425 9.77792C10.5687 9.23196 10.9002 8.73588 11.318 8.31802C11.7359 7.90016 12.232 7.56869 12.7779 7.34254C13.3239 7.1164 13.9091 7 14.5 7C15.0909 7 15.6761 7.1164 16.2221 7.34254C16.768 7.56869 17.2641 7.90016 17.682 8.31802C18.0998 8.73588 18.4313 9.23196 18.6575 9.77792C18.8836 10.3239 19 10.9091 19 11.5C19 12.6935 18.5259 13.8381 17.682 14.682C16.8381 15.5259 15.6935 16 14.5 16C13.3065 16 12.1619 15.5259 11.318 14.682C10.4741 13.8381 10 12.6935 10 11.5ZM22.75 13.4395V10H24.25V13.4395L25.219 12.469L26.281 13.531L24.031 15.781C23.9613 15.8508 23.8786 15.9063 23.7874 15.9441C23.6963 15.9819 23.5987 16.0013 23.5 16.0013C23.4013 16.0013 23.3037 15.9819 23.2126 15.9441C23.1214 15.9063 23.0387 15.8508 22.969 15.781L20.719 13.531L21.781 12.469L22.75 13.4395ZM7 25V24.25C7 22.4598 7.71116 20.7429 8.97703 19.477C10.2429 18.2112 11.9598 17.5 13.75 17.5H15.25C17.0402 17.5 18.7571 18.2112 20.023 19.477C21.2888 20.7429 22 22.4598 22 24.25V25H7Z" fill="#4343FF"/>
</svg>
