<svg width="17" height="17" viewBox="0 0 17 17" fill="none" xmlns="http://www.w3.org/2000/svg">
<g clip-path="url(#clip0_217_2002)">
<path d="M11.6665 2V3H15.1665C15.2991 3 15.4263 3.05268 15.5201 3.14645C15.6138 3.24021 15.6665 3.36739 15.6665 3.5C15.6665 3.63261 15.6138 3.75979 15.5201 3.85355C15.4263 3.94732 15.2991 4 15.1665 4H14.6285L13.7755 14.66C13.7353 15.1612 13.5078 15.6289 13.1382 15.9698C12.7687 16.3108 12.2843 16.5001 11.7815 16.5H5.5515C5.0487 16.5001 4.5643 16.3108 4.19478 15.9698C3.82526 15.6289 3.59773 15.1612 3.5575 14.66L2.7045 4H2.1665C2.0339 4 1.90672 3.94732 1.81295 3.85355C1.71918 3.75979 1.6665 3.63261 1.6665 3.5C1.6665 3.36739 1.71918 3.24021 1.81295 3.14645C1.90672 3.05268 2.0339 3 2.1665 3H5.6665V2C5.6665 1.60218 5.82454 1.22064 6.10584 0.93934C6.38715 0.658035 6.76868 0.5 7.1665 0.5L10.1665 0.5C10.5643 0.5 10.9459 0.658035 11.2272 0.93934C11.5085 1.22064 11.6665 1.60218 11.6665 2ZM6.6665 2V3H10.6665V2C10.6665 1.86739 10.6138 1.74021 10.5201 1.64645C10.4263 1.55268 10.2991 1.5 10.1665 1.5H7.1665C7.0339 1.5 6.90672 1.55268 6.81295 1.64645C6.71918 1.74021 6.6665 1.86739 6.6665 2ZM5.1665 5.529L5.6665 14.029C5.66917 14.0954 5.68507 14.1607 5.71326 14.2209C5.74146 14.2811 5.78138 14.3351 5.8307 14.3797C5.88001 14.4244 5.93773 14.4587 6.00048 14.4807C6.06322 14.5027 6.12973 14.512 6.19611 14.508C6.26249 14.504 6.3274 14.4868 6.38705 14.4575C6.44671 14.4281 6.4999 14.3871 6.54352 14.3369C6.58713 14.2867 6.6203 14.2283 6.64108 14.1651C6.66185 14.102 6.66982 14.0353 6.6645 13.969L6.1645 5.469C6.16184 5.40255 6.14594 5.33731 6.11775 5.27708C6.08955 5.21686 6.04963 5.16286 6.00031 5.11825C5.95099 5.07365 5.89328 5.03932 5.83053 5.0173C5.76779 4.99527 5.70128 4.98598 5.6349 4.98997C5.56852 4.99396 5.50361 5.01115 5.44395 5.04054C5.3843 5.06992 5.33111 5.11091 5.28749 5.16111C5.24387 5.2113 5.21071 5.26969 5.18993 5.33286C5.16916 5.39603 5.16119 5.46271 5.1665 5.529ZM11.6965 5.001C11.5642 4.99335 11.4342 5.03856 11.3352 5.1267C11.2362 5.21483 11.1762 5.33867 11.1685 5.471L10.6685 13.971C10.6642 14.1014 10.711 14.2282 10.799 14.3246C10.8869 14.4209 11.009 14.479 11.1392 14.4866C11.2694 14.4942 11.3975 14.4506 11.496 14.3651C11.5945 14.2796 11.6557 14.159 11.6665 14.029L12.1665 5.529C12.1742 5.39667 12.1289 5.26671 12.0408 5.1677C11.9527 5.06869 11.8288 5.00873 11.6965 5.001ZM8.6665 5C8.5339 5 8.40672 5.05268 8.31295 5.14645C8.21918 5.24021 8.1665 5.36739 8.1665 5.5V14C8.1665 14.1326 8.21918 14.2598 8.31295 14.3536C8.40672 14.4473 8.5339 14.5 8.6665 14.5C8.79911 14.5 8.92629 14.4473 9.02006 14.3536C9.11383 14.2598 9.1665 14.1326 9.1665 14V5.5C9.1665 5.36739 9.11383 5.24021 9.02006 5.14645C8.92629 5.05268 8.79911 5 8.6665 5Z" fill="#4343FF"/>
</g>
<defs>
<clipPath id="clip0_217_2002">
<rect width="16" height="16" fill="white" transform="translate(0.666504 0.5)"/>
</clipPath>
</defs>
</svg>
